# xmcd CD database file
# Copyright (C) 1997 Ti Kan
# 
# Track frame offsets:
#     150
#     22815
#     47035
#     73720
#     94895
#     118508
#     144745
#     169825
#     196568
#     219665
#     238245
#     262728
# 
# Disc length: 3771 seconds
# 
# Revision: 1
# Processed by: cddbd v1.4b41PL1 Copyright (c) Steve Scherf et al.
# Submitted via: DiscPlay 4.0.4
# 
DISCID=a50eb90c
DTITLE=Guess - Guess
DYEAR=1900
DGENRE=
TTITLE0=Shu-B
TTITLE1=My Reason (For Loving Someone Else)
TTITLE2=Tell Me Where It Hurts
TTITLE3=Give Me One More Chance
TTITLE4=Same Ole Story
TTITLE5=It's You That I Need
TTITLE6=WakDatPaddi
TTITLE7=Tonight
TTITLE8=Mystery Love Affair
TTITLE9=Don't Tell Me
TTITLE10=He Say, She Say
TTITLE11=Make Up Your Mind
EXTD=
EXTT0=
EXTT1=
EXTT2=
EXTT3=
EXTT4=
EXTT5=
EXTT6=
EXTT7=
EXTT8=
EXTT9=
EXTT10=
EXTT11=
PLAYORDER=
